# xmcd
#
# Track frame offsets:
#	150
#	30982
#	60592
#	75680
#	102850
#	111110
#	142782
#	161472
#	181000
#	198355
#
# Disc length: 2896 seconds
#
# Revision: 5
# Processed by: cddbd v1.5.2PL0 Copyright (c) Steve Scherf et al.
# Submitted via: audiograbber 1.83.01
#
DISCID=6e0b4e0a
DTITLE=Eric Bogle - Scraps Of Paper
DYEAR=1900
DGENRE=Folk
TTITLE0=Scraps Of Paper
TTITLE1=No Man's Land
TTITLE2=Front Row Cowboy
TTITLE3=A Reason For It All
TTITLE4=He's Nobody's Moggy Now
TTITLE5=And The Band Played Waltzing Matilda
TTITLE6=Now I'm Easy
TTITLE7=Just Not Coping
TTITLE8=The Ballad Of Henry Holloway
TTITLE9=If Wishes Were Fishes
EXTD=ID3G: 0
EXTT0=
EXTT1=
EXTT2=
EXTT3=
EXTT4=
EXTT5=
EXTT6=
EXTT7=
EXTT8=
EXTT9=
PLAYORDER=
